<svg width="22" height="22" viewBox="0 0 22 22" fill="none" xmlns="http://www.w3.org/2000/svg">
<path d="M18.7501 14.3426L17.7363 12.6505C17.3733 12.0455 17.1826 11.3533 17.1826 10.6484V8.24038C17.1826 4.83404 14.4088 2.06205 10.9997 2.06205C7.59063 2.06205 4.81679 4.83313 4.81679 8.24038V10.6484C4.81679 11.3533 4.6252 12.0455 4.26312 12.6505L3.24929 14.3426C2.89638 14.9302 2.88813 15.6378 3.22546 16.2337C3.56371 16.8313 4.17512 17.1879 4.8617 17.1879H8.51004C8.50271 17.2649 8.47979 17.3392 8.47979 17.4171C8.47979 18.8077 9.61004 19.9379 11.0006 19.9379C12.3912 19.9379 13.5215 18.8077 13.5215 17.4171C13.5215 17.3392 13.4985 17.2649 13.4912 17.1879H17.1395C17.8261 17.1879 18.4384 16.8313 18.7758 16.2346C19.1122 15.6378 19.103 14.9302 18.7501 14.3426ZM12.1446 17.4171C12.1446 18.0487 11.6304 18.5629 10.9988 18.5629C10.3672 18.5629 9.85296 18.0487 9.85296 17.4171C9.85296 17.3392 9.86763 17.2631 9.88321 17.1879H12.1144C12.13 17.2631 12.1446 17.3392 12.1446 17.4171ZM17.5777 15.5563C17.5337 15.6333 17.4045 15.8121 17.1377 15.8121H4.85987C4.59403 15.8121 4.46387 15.6333 4.41987 15.5563C4.37679 15.4793 4.28971 15.2767 4.42629 15.0494L5.44013 13.3572C5.93146 12.5387 6.18995 11.6017 6.18995 10.6484V8.24038C6.18995 5.59213 8.34687 3.43705 10.9979 3.43705C13.6489 3.43705 15.8058 5.59213 15.8058 8.24038V10.6484C15.8058 11.6017 16.0652 12.5387 16.5556 13.3572L17.5695 15.0494C17.707 15.2767 17.6208 15.4793 17.5777 15.5563Z" fill="#1B1B1B"/>
<circle cx="16" cy="5" r="3" fill="#FFC4C4"/>
<circle cx="16" cy="5" r="2" fill="#DC1010"/>
</svg>
