<svg width="20" height="20" viewBox="0 0 20 20" fill="none" xmlns="http://www.w3.org/2000/svg">
<path d="M10 13.3321C11.8403 13.3321 13.3321 11.8403 13.3321 9.99999C13.3321 8.15973 11.8403 6.66791 10 6.66791C8.15976 6.66791 6.66794 8.15973 6.66794 9.99999C6.66794 11.8403 8.15976 13.3321 10 13.3321Z" fill="#616161"/>
<path d="M19.389 7.84998C18.097 5.74576 15.1581 2.21539 10 2.21539C4.84193 2.21539 1.90302 5.74576 0.610995 7.84998C-0.203624 9.16758 -0.203624 10.8324 0.610995 12.1501C1.90302 14.2543 4.84193 17.7847 10 17.7847C15.1581 17.7847 18.097 14.2543 19.389 12.1501C20.2036 10.8324 20.2036 9.16758 19.389 7.84998ZM10 14.9981C7.23963 14.9981 5.00187 12.7604 5.00187 10C5.00187 7.23962 7.23963 5.00186 10 5.00186C12.7604 5.00186 14.9982 7.23962 14.9982 10C14.9954 12.7593 12.7593 14.9954 10 14.9981Z" fill="#616161"/>
</svg>
