<svg width="16" height="17" viewBox="0 0 16 17" fill="none" xmlns="http://www.w3.org/2000/svg">
<path d="M16 7.78097V15.6399C16 16.0006 15.8595 16.3466 15.6095 16.6016C15.3594 16.8567 15.0203 17 14.6666 17H11.3333C10.9797 17 10.6406 16.8567 10.3905 16.6016C10.1405 16.3466 9.99999 16.0006 9.99999 15.6399V12.2396C9.99999 12.0592 9.92975 11.8863 9.80473 11.7587C9.6797 11.6312 9.51013 11.5595 9.33332 11.5595H6.66666C6.48985 11.5595 6.32028 11.6312 6.19525 11.7587C6.07023 11.8863 5.99999 12.0592 5.99999 12.2396V15.6399C5.99999 16.0006 5.85952 16.3466 5.60947 16.6016C5.35942 16.8567 5.02028 17 4.66666 17H1.33333C0.97971 17 0.640572 16.8567 0.390524 16.6016C0.140476 16.3466 1.54065e-08 16.0006 1.54065e-08 15.6399V7.78097C-2.80357e-05 7.59273 0.0382493 7.40653 0.112409 7.23416C0.18657 7.06179 0.294998 6.907 0.430833 6.77958L7.09749 0.363235L7.10666 0.353884C7.35211 0.126178 7.67197 0 8.00374 0C8.33552 0 8.65537 0.126178 8.90082 0.353884C8.90367 0.357211 8.90673 0.360335 8.90999 0.363235L15.5766 6.77958C15.7111 6.90767 15.8182 7.06276 15.891 7.2351C15.9639 7.40744 16.001 7.59329 16 7.78097Z" fill="#A6A6A6"/>
</svg>
