<svg width="24" height="24" viewBox="0 0 24 24" fill="none" xmlns="http://www.w3.org/2000/svg">
    <g opacity="0.83">
        <path d="M11.6173 4.3908C11.5342 4.43556 11.6087 4.45235 11.6345 4.46074C11.7779 4.5111 11.9212 4.55866 12.076 4.60902C11.9327 4.71813 11.7807 4.6286 11.6059 4.65098C11.8037 4.76569 11.9785 4.85801 12.1419 4.96712C12.2337 5.02867 12.2537 5.19373 12.4343 5.13218C12.3254 5.25808 12.4114 5.32243 12.6665 5.33082C12.7583 5.33362 12.8471 5.33082 12.9532 5.34481C12.7525 5.43433 12.6723 5.58261 12.6866 5.78684C12.6895 5.8428 12.6264 5.8316 12.592 5.84559C12.4945 5.88756 12.3827 5.90714 12.3168 6.01905C12.3627 6.05822 12.42 6.10018 12.4917 6.11977C12.549 6.13655 12.6293 6.14215 12.6035 6.23167C12.5805 6.30441 12.5117 6.27644 12.4601 6.27084C12.4257 6.26804 12.3913 6.25685 12.334 6.27084C12.3541 6.28203 12.377 6.29322 12.3971 6.30721C12.248 6.47787 12.4143 6.51144 12.5203 6.57019C12.6149 6.62335 12.6493 6.67651 12.6665 6.8024C12.6837 6.9311 12.7955 7.09056 12.9905 7.13812C12.9274 7.20527 12.8758 7.19128 12.8385 7.17729C12.6665 7.10175 12.5375 7.21646 12.4974 7.32277C12.463 7.4151 12.4114 7.35355 12.3856 7.38432C12.3541 7.40111 12.3569 7.46825 12.2967 7.43748C12.2021 7.57736 12.0932 7.51301 11.9843 7.45706C11.9384 7.43468 11.9384 7.43748 11.861 7.49623C11.8495 7.50462 11.8151 7.48504 11.7893 7.48224C11.7291 7.47105 11.6861 7.4039 11.5829 7.45147C11.775 7.66689 11.9499 7.8907 12.2165 7.99142C12.8127 8.21803 13.4061 8.46703 14.0368 8.59572C14.226 8.63489 14.4238 8.64888 14.6187 8.65447C14.9341 8.66286 15.2236 8.75799 15.4931 8.90906C16.1381 9.26996 16.7572 9.66444 17.2274 10.2464C17.3621 10.4114 17.5198 10.5625 17.6975 10.6856C18.2823 11.0885 18.7467 11.6256 19.2885 12.0816C19.3831 12.16 19.4605 12.2635 19.5178 12.3698C19.7644 12.8286 19.9994 13.2902 20.2402 13.7519C20.2374 13.8134 20.2775 13.861 20.289 13.9169C20.289 13.9449 20.2804 13.9729 20.289 13.9981C20.6244 14.9968 20.8566 16.0404 21.6105 16.8545C21.6764 16.9244 21.728 17.0084 21.814 17.0587C21.8398 17.0755 21.8828 17.0867 21.857 17.1315C21.8226 17.1874 21.7825 17.1594 21.7567 17.1315C21.6019 16.9692 21.3296 17.0224 21.192 16.8293C21.1748 16.8405 21.1604 16.8517 21.1432 16.8629C21.1203 16.8629 21.0916 16.8181 21.0773 16.8713C21.4041 17.3245 21.5331 17.8673 21.7682 18.3624C21.8398 18.5107 21.9086 18.6618 21.9602 18.8157C22.0261 19.0115 22.0147 19.1682 21.8914 19.3836C21.7424 19.6438 21.6764 19.4619 21.6019 19.4032C21.4127 19.2577 21.1604 19.2269 20.9827 19.0619C20.7476 18.8436 20.5441 18.603 20.3635 18.3429C20.2058 18.1162 20.0166 17.9148 19.8074 17.7302C19.6468 17.5903 19.4376 17.4532 19.2598 17.4392C19.0305 17.4224 18.9531 17.2965 18.847 17.1706C18.7238 17.0252 18.5661 16.9048 18.503 16.7174C18.245 15.962 17.9584 15.215 18.0157 14.3925C18.0444 13.9785 18.0214 13.5616 18.0214 13.1448C17.9956 13.142 17.9727 13.1364 17.9469 13.1336C17.8781 13.2762 17.8036 13.4161 17.7376 13.5616C17.5255 14.0288 17.299 14.4904 16.9808 14.9017C16.806 15.1283 16.8088 15.3689 16.955 15.6095C17.1213 15.8865 17.2818 16.1663 17.4538 16.4376C17.5972 16.667 17.5972 16.8797 17.4452 17.1063C16.7945 18.0799 16.2613 19.1122 15.7539 20.1614C15.645 20.388 15.516 20.5922 15.2523 20.6817C15.1089 20.7321 15.0688 20.8496 15.0717 20.9951C15.0889 21.5098 14.8739 21.7896 14.3636 21.9323C14.0626 22.0162 13.7559 22.0106 13.4463 21.9771C13.3144 21.9631 13.2743 21.9071 13.3316 21.7868C13.5552 21.3252 13.7731 20.858 14.0655 20.4327C14.1687 20.2817 14.3321 20.1921 14.4725 20.0802C14.5929 19.9851 14.7076 19.8816 14.7821 19.7501C15.0688 19.2437 15.3784 18.7457 15.602 18.2086C15.8313 17.6574 15.7081 17.0224 15.3153 16.6726C15.1233 16.502 15.1061 16.5076 14.9226 16.6782C14.7449 16.8433 14.527 16.9636 14.3091 17.0671C13.6211 17.3888 13.0908 17.8812 12.6436 18.4716C12.6321 18.4883 12.6207 18.5107 12.6035 18.5191C12.2881 18.6646 12.3684 18.8912 12.4544 19.1318C12.4974 19.2549 12.4831 19.3836 12.4458 19.5151C12.3197 19.9487 12.0531 20.2928 11.7062 20.6146C11.5457 20.2928 11.3737 19.9935 11.2676 19.6634C11.2246 19.5319 11.2389 19.392 11.2791 19.2577C11.3679 18.9667 11.4109 18.6702 11.4281 18.3708C11.4367 18.189 11.5084 18.0519 11.6489 17.9288C12.1735 17.456 12.7267 17.0168 13.1969 16.4852C13.4835 16.1607 13.5523 15.8193 13.3431 15.4501C13.0879 14.994 12.9131 14.5268 12.8758 14.0009C12.85 13.6455 12.7841 13.6511 12.4401 13.6092C10.7058 13.3938 9.06889 12.8566 7.5037 12.1096C7.25717 11.9921 7.05651 11.9194 6.77271 12.0984C6.53191 12.2495 6.18791 12.1991 5.89265 12.2327C5.22472 12.3083 4.55105 12.3194 3.88026 12.3306C3.72833 12.3306 3.59359 12.3642 3.49326 12.4929C3.38433 12.63 3.3442 12.7559 3.44739 12.9209C3.58786 13.1476 3.71113 13.3854 3.84013 13.6204C3.93473 13.791 4.07232 13.8917 4.27586 13.8861C4.40772 13.8833 4.50519 13.9225 4.54819 14.0596C4.58545 14.1883 4.65139 14.1519 4.72592 14.082C4.80905 14.0036 4.88359 13.9169 5.01545 13.8917C5.27632 13.8442 5.46838 13.8973 5.60598 14.1407C5.75218 14.3953 5.87258 14.6471 5.89265 14.9437C5.90125 15.0808 5.86111 15.1451 5.71205 15.1479C5.07279 15.1619 4.46219 15.0304 3.86879 14.8122C3.66239 14.7366 3.52479 14.5856 3.47893 14.3645C3.43306 14.1575 3.32986 13.9897 3.112 13.861C3.1034 14.11 3.08046 14.3366 3.0002 14.5548C2.96006 14.6639 3.03173 14.7674 3.11486 14.8458C3.23526 14.9605 3.35853 15.0724 3.47893 15.1843C3.89173 15.5648 3.76846 16.3705 3.26106 16.6167C3.14353 16.6726 3.04033 16.667 2.96866 16.5551C2.71353 16.1663 2.38673 15.8193 2.29787 15.3409C2.27494 15.2206 2.24054 15.0947 2.1746 14.9968C1.96247 14.6863 1.96247 14.3701 2.07427 14.0232C2.1832 13.6847 2.252 13.3378 2.33513 12.9909C2.3896 12.7587 2.3638 12.5321 2.25487 12.3138C2.0198 11.8382 2.1058 11.5081 2.53293 11.1864C3.13493 10.7304 3.69106 10.2156 4.35899 9.84628C4.44786 9.79593 4.47939 9.72039 4.47079 9.62247C4.45646 9.46021 4.45932 9.29234 4.43352 9.13288C4.36759 8.71602 4.44499 8.33274 4.68579 7.98023C4.87212 7.70605 5.05845 7.43188 5.11005 7.09896C5.18745 6.57859 5.27345 6.05542 5.08138 5.54065C5.05558 5.4735 5.05558 5.38118 4.94952 5.37838C4.86352 5.37558 4.79759 5.42594 4.76605 5.49308C4.65139 5.7197 4.51092 5.93232 4.35899 6.13655C4.28159 6.24007 4.28159 6.36596 4.28159 6.48906C4.28159 6.74365 4.17552 6.84437 3.92899 6.9227C3.70253 6.99265 3.47893 7.05979 3.23813 7.03461C3.14353 7.02622 3.00306 7.06818 3.0346 6.87234C3.04606 6.79401 2.9142 6.77443 2.84253 6.74085C2.71067 6.67371 2.60747 6.60377 2.725 6.4443C2.77373 6.37995 2.73933 6.3268 2.69347 6.28203C2.59313 6.18132 2.59313 6.07221 2.62753 5.94071C2.75653 5.46511 2.8798 4.9895 2.9228 4.49711C2.94 4.27889 2.9744 4.06067 2.9056 3.84525C2.81387 3.55429 2.89126 3.27732 2.9658 3.00035C2.9916 2.90243 3.026 2.80451 3.05466 2.70659C3.1464 2.39045 3.112 2.30092 2.81387 2.14425C2.5788 2.02116 2.3466 1.90086 2.252 1.63228C2.31507 1.58751 2.36093 1.62109 2.41253 1.64347C2.9056 1.83651 3.39006 1.82812 3.86019 1.57353C3.94906 1.52597 3.94333 1.47281 3.92613 1.38888C3.90033 1.26018 3.79139 1.14268 3.86593 1H3.90893C3.99492 1.15108 4.15259 1.23221 4.28159 1.34132C4.35039 1.40007 4.42492 1.36929 4.49659 1.34132C5.01545 1.13149 5.57158 1.09512 6.10765 1.14828C6.90171 1.22941 7.6843 1.40846 8.39523 1.79734C8.48696 1.8477 8.58443 1.88127 8.68476 1.91484C8.81376 1.95961 8.95136 1.95681 9.06316 2.06872C9.19503 2.20021 9.37563 2.21979 9.56769 2.14985C9.45589 2.24777 9.32116 2.30932 9.22943 2.43242C9.24949 2.46319 9.31256 2.47438 9.36703 2.49396C9.64222 2.58629 9.91456 2.72058 10.098 2.91921C10.2901 3.12904 10.5338 3.14862 10.7602 3.23535C11.0497 3.35006 11.3479 3.43679 11.6431 3.5347C11.6632 3.55149 11.6632 3.57107 11.6489 3.59346C11.6575 3.73334 11.7406 3.77251 11.8725 3.76411C11.9585 3.75852 12.0645 3.70536 12.1276 3.7837C12.205 3.87882 12.0387 3.8984 12.0359 3.97674C12.0359 3.98513 12.0531 3.99353 12.0617 4.00192C12.0846 4.0187 12.1276 4.0271 12.0989 4.06906C11.8925 4.07186 11.7406 4.20335 11.5772 4.30127C11.6001 4.34324 11.646 4.32085 11.6804 4.33204C11.7091 4.37681 11.6661 4.3852 11.6403 4.40478L11.6173 4.3908Z" fill="#374B73"/>
    </g>
</svg>
