<svg width="117" height="77" viewBox="0 0 117 77" fill="none" xmlns="http://www.w3.org/2000/svg">
<g filter="url(#filter0_d_2407_1239)">
<path d="M2 69.3284C9.34291 69.0729 16.6824 68.8175 24.4952 68.5447C23.9009 67.478 23.6348 66.7013 23.1269 66.1455C21.8138 64.7059 21.7619 63.3147 22.7295 61.6404C24.122 59.2273 25.3556 56.7245 26.6273 54.2424C28.3412 50.8938 31.0088 48.6602 34.6405 47.7661C39.302 46.6165 43.1341 44.1931 46.0298 40.4475C48.155 37.6995 50.6187 37.3957 53.6215 38.5626C59.6168 40.8928 65.7399 42.7397 72.2777 43.1747C69.2922 45.2702 64.2645 44.7696 55.8711 41.49C54.4785 45.2391 51.0472 46.6579 47.0112 48.2149C49.1121 49.8754 50.7708 51.346 52.5849 52.5853C57.0045 55.6025 56.3272 56.2723 54.8932 59.5242C54.0397 61.4574 53.587 63.5667 52.9512 65.5966C52.6886 65.6207 52.4259 65.6449 52.1633 65.6691C51.2304 64.5333 50.3008 63.3975 49.3678 62.2618L49.6996 61.9511C50.3907 62.3067 51.0783 62.6622 51.7901 63.0316C52.3949 61.0397 53.0548 59.2204 53.4557 57.3493C53.5801 56.7728 53.1792 55.8787 52.7266 55.4161C50.833 53.476 48.8772 51.5876 46.8522 49.7856C45.4286 48.5187 45.477 47.59 47.1805 46.7339C49.9864 45.3185 52.4259 43.4992 53.936 40.6442C51.3893 39.0493 49.1329 39.1529 47.5641 41.5004C44.2606 46.4439 39.5128 48.8121 33.9287 49.972C30.7151 50.6383 28.5382 52.4887 27.4013 55.5956C26.5201 58.0018 25.3937 60.3251 24.6749 62.7727C24.4192 63.6392 24.9064 64.8198 25.29 65.7588C26.4199 68.5378 28.7282 68.5447 31.3406 68.5137C44.1742 68.3652 57.0079 68.417 69.8416 68.348C70.7262 68.3445 71.6074 67.9372 72.4885 67.7162C72.1637 66.8256 72.0773 65.6932 71.4657 65.0926C70.2597 63.905 70.3392 62.7658 70.9163 61.416C73.4077 55.6129 75.8887 49.8029 78.2903 44.1931C77.416 42.6361 76.4796 40.9722 75.5466 39.3117C75.7263 39.1356 75.906 38.9596 76.0857 38.7835C79.1783 43.2679 84.2234 41.742 88.3492 43.0435C89.1889 43.3093 90.077 43.4163 90.9097 44.0239C88.401 44.0239 85.8854 43.9273 83.3871 44.0792C82.5578 44.1275 81.4486 44.597 81.0167 45.2425C78.743 48.6153 76.6558 52.1124 74.4823 55.5507C71.8423 59.7244 72.5576 63.8291 74.8313 67.8198C75.0974 68.2893 76.2654 68.3894 77.0221 68.4136C87.2815 68.7243 97.5443 68.9866 107.807 69.2731C108.757 69.3008 109.708 69.3905 110.654 69.5528C74.4374 71.0476 38.2273 71.051 2.00691 69.3422L2 69.3284Z" fill="white"/>
<path d="M103.957 3.76664C103.646 5.01633 103.591 6.03472 103.156 6.84943C101.518 9.88735 101.912 13.0634 102.167 16.2877C102.416 19.4361 102.361 22.6086 102.541 25.7639C102.644 27.6039 101.632 28.5188 100.066 28.6154C98.7741 28.6948 97.3954 28.3945 96.1514 27.9768C94.669 27.4796 94.2578 26.3853 94.6621 24.7524C94.828 24.0758 94.123 23.0781 93.6151 22.3704C92.8272 21.2795 91.8632 20.3164 90.9094 19.2289C89.2266 20.4027 89.2335 22.1736 89.2543 23.8652C89.2784 25.8191 89.5687 27.7731 89.5791 29.727C89.586 30.7903 89.2508 31.8536 89.078 32.8581C86.2756 25.1632 86.3067 18.0034 93.1935 12.2348C91.6904 14.8102 92.6856 17.0437 94.009 19.2324C95.1942 21.1898 96.2585 23.1264 95.5778 25.6017C95.4672 26.0056 96.4244 27.0792 97.0395 27.2311C98.356 27.5556 99.8419 27.5694 100.277 25.757C100.453 25.0286 100.498 24.2657 100.54 23.5165C100.858 17.6962 101.158 11.8724 101.476 5.88282C101.812 6.0071 101.632 5.88282 101.563 5.92425C99.3961 7.29821 97.4334 6.81836 95.1044 5.91044C87.295 2.86562 79.223 6.0071 75.2561 13.3292C74.4682 14.7825 73.6113 16.2532 73.162 17.8239C72.0148 21.8112 68.9014 23.0954 65.3941 23.016C62.4673 22.9538 59.3574 22.3566 56.6897 21.1794C49.6578 18.069 44.1083 18.9838 38.8767 24.8215C37.9402 24.0171 37.0211 23.1713 36.0432 22.4015C31.8413 19.0943 28.0023 19.0494 23.987 22.5361C22.1832 24.1034 20.7181 26.0573 19.132 27.8697C16.4056 30.9836 13.2024 32.9997 8.85194 32.2851C6.23959 31.857 4.33562 30.3864 2.99489 28.0976C3.20567 28.0251 3.37845 27.9043 3.45447 27.9491C8.68608 30.9767 13.2922 29.6821 17.5218 25.9089C18.8141 24.7559 20.0615 23.5476 21.3055 22.3428C26.0914 17.71 31.6029 17.1162 37.0971 20.8446C38.424 21.7456 39.3501 21.8043 40.7046 21.0034C46.1885 17.7514 51.9281 16.9229 58.0581 19.2013C59.9344 19.8987 62.0077 20.3026 64.0085 20.3785C67.1184 20.4993 69.6685 19.7295 71.303 16.3843C73.7184 11.4339 77.516 7.50535 82.4919 4.90586C86.6868 2.71372 91.1029 2.09578 95.6089 3.75283C97.5923 4.48124 99.4341 4.90931 101.473 4.08769C102.119 3.82532 102.9 3.89782 103.964 3.77699L103.957 3.76664Z" fill="white"/>
<path d="M83.5577 34.0219C86.0767 36.9079 89.2247 37.5776 92.3899 38.2508C93.7099 38.5339 95.0334 38.9205 96.2635 39.459C98.4992 40.436 98.9623 42.2208 98.1295 44.4716C97.1792 47.0469 96.5296 49.7362 95.7521 52.3771C95.7106 52.5186 95.7314 52.6809 95.6934 52.8259C95.1612 54.98 90.1058 58.011 87.5868 57.5346C91.9545 54.2516 95.4135 50.4853 96.578 45.0067C96.9892 43.0666 96.5918 41.9377 94.75 41.3336C92.3139 40.5361 89.8467 39.8388 87.4417 38.9619C85.3684 38.2059 83.8272 36.8768 83.5542 34.0219H83.5577Z" fill="white"/>
<path d="M30.2934 44.6384C33.8698 41.994 34.4503 38.4763 33.7592 34.3647C33.2478 31.3303 33.7696 28.389 36.4165 25.6549C36.6929 26.4627 37.0661 26.9909 37.0143 27.4776C36.686 30.5777 36.1435 33.6605 35.9051 36.7674C35.6148 40.5372 34.0149 43.2713 30.2934 44.6384Z" fill="white"/>
</g>
<defs>
<filter id="filter0_d_2407_1239" x="0" y="0.810547" width="116.654" height="75.8396" filterUnits="userSpaceOnUse" color-interpolation-filters="sRGB">
<feFlood flood-opacity="0" result="BackgroundImageFix"/>
<feColorMatrix in="SourceAlpha" type="matrix" values="0 0 0 0 0 0 0 0 0 0 0 0 0 0 0 0 0 0 127 0" result="hardAlpha"/>
<feOffset dx="2" dy="2"/>
<feGaussianBlur stdDeviation="2"/>
<feComposite in2="hardAlpha" operator="out"/>
<feColorMatrix type="matrix" values="0 0 0 0 0 0 0 0 0 0 0 0 0 0 0 0 0 0 0.16 0"/>
<feBlend mode="normal" in2="BackgroundImageFix" result="effect1_dropShadow_2407_1239"/>
<feBlend mode="normal" in="SourceGraphic" in2="effect1_dropShadow_2407_1239" result="shape"/>
</filter>
</defs>
</svg>
