<svg width="7" height="9" viewBox="0 0 7 9" fill="none" xmlns="http://www.w3.org/2000/svg">
<path d="M6.94872 3.07369C6.67833 1.43423 5.41248 0.176147 3.85293 0.019429C2.83608 -0.08264 1.92701 0.216338 1.17041 0.942676C0.233361 1.84221 -0.139044 2.97047 0.0460617 4.29447C0.143414 4.98987 0.417644 5.61529 0.776886 6.19966C1.45369 7.30073 2.34137 8.18437 3.34917 8.94107C3.45612 9.02145 3.53811 9.01885 3.65 8.93789C3.90065 8.7563 4.1406 8.55939 4.37287 8.35236C5.20571 7.60925 5.94229 6.77911 6.46415 5.75784C6.79433 5.11189 6.99616 4.42719 7 3.66037C6.99232 3.48168 6.9819 3.27725 6.94817 3.07398L6.94872 3.07369ZM3.49424 5.30938C2.6507 5.30591 1.96184 4.57581 1.96458 3.68813C1.96732 2.79842 2.65948 2.0718 3.50164 2.07498C4.34545 2.07816 5.03486 2.80854 5.03157 3.69594C5.02828 4.58564 4.3353 5.31285 3.49424 5.30938Z" fill="#1B1B1B"/>
</svg>
