<svg width="24" height="24" viewBox="0 0 24 24" fill="none" xmlns="http://www.w3.org/2000/svg">
    <g opacity="0.83">
        <path d="M9.99931 6.51677C9.99931 7.41996 10.0005 8.32375 9.99931 9.22694C9.99753 10.319 9.31868 10.9977 8.22706 10.9989C6.40551 11.0001 4.58396 11.0007 2.76182 10.9989C1.68505 10.9971 1.00263 10.3142 1.00144 9.23703C0.999663 7.40809 0.999069 5.57914 1.00144 3.75079C1.00323 2.68846 1.68861 2.0032 2.75113 2.00201C4.58753 1.99964 6.42392 1.99904 8.26032 2.00201C9.30918 2.00379 9.99397 2.69024 9.99812 3.7401C10.0017 4.66586 9.99872 5.59102 9.99872 6.51677H9.99931Z" fill="#A6A6A6"/>
        <path d="M18.5069 2.00763C19.4095 2.00763 20.3133 2.03196 21.2147 2.0011C22.2514 1.96609 23.0145 2.77314 22.9997 3.77245C22.9724 5.59247 22.9931 7.41308 22.9914 9.2331C22.9902 10.3214 22.3089 10.9979 21.2159 10.9991C19.403 11.0003 17.5907 11.0003 15.7778 10.9991C14.6847 10.9985 14.0023 10.3208 14.0017 9.23428C13.9999 7.39943 13.9987 5.56399 14.0017 3.72913C14.0035 2.86452 14.5085 2.21592 15.3131 2.04264C15.4633 2.01059 15.6217 2.01 15.7766 2.00941C16.6869 2.00644 17.5966 2.00822 18.5069 2.00822V2.00763Z" fill="#374B73"/>
        <path d="M9.99935 17.5111C9.99935 18.4143 10.0005 19.3181 9.99935 20.2213C9.99757 21.3158 9.32051 21.9975 8.23248 21.9987C6.41096 22.0004 4.58945 22.0004 2.76734 21.9987C1.68822 21.9975 1.00285 21.317 1.00166 20.2433C0.999284 18.4143 0.999284 16.5854 1.00166 14.7564C1.00285 13.6917 1.68643 13.0034 2.74596 13.0022C4.58232 12.9993 6.41868 12.9993 8.25505 13.0022C9.31517 13.004 9.99579 13.6911 9.99876 14.757C10.0011 15.675 9.99876 16.5931 9.99876 17.5117L9.99935 17.5111Z" fill="#A6A6A6"/>
        <path d="M18.5042 22C18.1018 21.9903 17.7439 21.8577 17.4563 21.5716C16.4461 20.5665 15.4342 19.5637 14.4368 18.5463C13.8509 17.9488 13.8558 17.0479 14.4422 16.452C15.4369 15.441 16.4396 14.4382 17.4494 13.4423C18.0503 12.8501 18.957 12.8533 19.5584 13.4476C20.5628 14.4392 21.5613 15.4373 22.5511 16.4434C23.152 17.0543 23.1488 17.9563 22.5452 18.5683C21.5591 19.569 20.5617 20.5585 19.5676 21.5512C19.2752 21.8432 18.9173 21.9871 18.5036 22H18.5042Z" fill="#A6A6A6"/>
    </g>
</svg>
