<svg width="156" height="141" viewBox="0 0 156 141" fill="none" xmlns="http://www.w3.org/2000/svg">
<g filter="url(#filter0_d_2406_1013)">
<path d="M2 92.2588C11.9637 91.9121 21.9227 91.5655 32.5241 91.1954C31.7176 89.748 31.3566 88.694 30.6673 87.9398C28.8856 85.9865 28.8153 84.0987 30.1281 81.8268C32.0177 78.5525 33.6916 75.1564 35.4171 71.7883C37.7427 67.2446 41.3625 64.2138 46.2904 63.0006C52.6156 61.4407 57.8155 58.1523 61.7447 53.0698C64.6283 49.3411 67.9714 48.9289 72.046 50.5122C80.1811 53.6741 88.4896 56.1802 97.3608 56.7704C93.3097 59.6138 86.4875 58.9346 75.0984 54.4845C73.2088 59.5717 68.5528 61.4969 63.0763 63.6095C65.9271 65.8627 68.1777 67.8582 70.6394 69.5399C76.6363 73.634 75.7173 74.5427 73.7715 78.9553C72.6133 81.5785 71.9991 84.4407 71.1364 87.195C70.78 87.2278 70.4237 87.2606 70.0673 87.2934C68.8013 85.7523 67.5401 84.2111 66.2741 82.67L66.7242 82.2484C67.662 82.7309 68.595 83.2134 69.5609 83.7146C70.3815 81.0117 71.277 78.5431 71.8209 76.0042C71.9897 75.2219 71.4458 74.0087 70.8316 73.381C68.2621 70.7484 65.6083 68.1861 62.8606 65.7409C60.9288 64.0218 60.9945 62.7617 63.3061 61.6C67.1134 59.6794 70.4237 57.2108 72.4727 53.3369C69.017 51.1727 65.9552 51.3132 63.8265 54.4986C59.344 61.2065 52.9016 64.4199 45.3245 65.9939C40.9639 66.8979 38.01 69.4087 36.4674 73.6246C35.2717 76.8895 33.7432 80.0421 32.7679 83.3633C32.4209 84.539 33.0821 86.1411 33.6025 87.4152C35.1358 91.1861 38.2679 91.1954 41.8126 91.1533C59.2268 90.9518 76.641 91.0221 94.0552 90.9284C95.2556 90.9237 96.4512 90.371 97.6468 90.0712C97.2061 88.8626 97.0889 87.3262 96.259 86.5111C94.6226 84.8997 94.7304 83.3539 95.5134 81.5223C98.8941 73.648 102.261 65.7643 105.519 58.1523C104.333 56.0397 103.062 53.7819 101.796 51.5287C102.04 51.2898 102.284 51.0509 102.528 50.812C106.724 56.8969 113.57 54.8265 119.168 56.5924C120.308 56.9531 121.513 57.0984 122.643 57.9228C119.239 57.9228 115.825 57.7916 112.435 57.9977C111.31 58.0633 109.805 58.7004 109.219 59.5763C106.134 64.1529 103.302 68.8981 100.352 73.5637C96.77 79.227 97.7406 84.7967 100.826 90.2117C101.187 90.8488 102.772 90.9846 103.799 91.0174C117.72 91.439 131.645 91.795 145.571 92.1838C146.861 92.2213 148.15 92.3431 149.435 92.5632C100.291 94.5916 51.1574 94.5962 2.00938 92.2775L2 92.2588Z" fill="#374B73"/>
<path d="M140.349 3.29733C139.927 4.99305 139.852 6.37492 139.261 7.48042C137.038 11.6026 137.573 15.9122 137.92 20.2873C138.257 24.5594 138.182 28.8643 138.426 33.1457C138.567 35.6425 137.193 36.8838 135.069 37.015C133.315 37.1227 131.445 36.7152 129.757 36.1484C127.745 35.4738 127.187 33.9889 127.736 31.7732C127.961 30.8551 127.004 29.5014 126.315 28.5411C125.246 27.0608 123.938 25.7539 122.644 24.2783C120.36 25.871 120.37 28.2741 120.398 30.5694C120.431 33.2207 120.824 35.872 120.839 38.5233C120.848 39.9661 120.393 41.4089 120.159 42.772C116.356 32.3307 116.398 22.6154 125.743 14.7879C123.703 18.2824 125.054 21.3132 126.85 24.283C128.458 26.939 129.902 29.5669 128.978 32.9256C128.828 33.4736 130.127 34.9305 130.962 35.1366C132.748 35.5769 134.764 35.5956 135.355 33.1364C135.594 32.148 135.655 31.1128 135.711 30.0963C136.143 22.1985 136.551 14.2961 136.982 6.16881C137.437 6.33745 137.193 6.16881 137.099 6.22502C134.159 8.08938 131.496 7.43826 128.336 6.20629C117.739 2.07473 106.786 6.33745 101.403 16.2729C100.334 18.245 99.1716 20.2405 98.562 22.3718C97.0054 27.7822 92.7808 29.5248 88.0216 29.417C84.0502 29.3327 79.8303 28.5223 76.2105 26.925C66.6688 22.7044 59.1386 23.9458 52.0398 31.8669C50.7691 30.7755 49.5219 29.6278 48.1949 28.5832C42.4934 24.0957 37.2841 24.0348 31.8357 28.7659C29.3882 30.8926 27.4001 33.5439 25.248 36.0032C21.5485 40.2284 17.202 42.9641 11.2988 41.9944C7.75404 41.4135 5.17051 39.418 3.35126 36.3123C3.63727 36.214 3.87171 36.05 3.97487 36.1109C11.0737 40.219 17.3239 38.4624 23.063 33.3425C24.8166 31.7779 26.5092 30.1384 28.1972 28.5036C34.6912 22.2173 42.1698 21.4115 49.625 26.4706C51.4255 27.6932 52.6821 27.7728 54.5201 26.6861C61.9613 22.2735 69.7494 21.1492 78.0673 24.2409C80.6133 25.1871 83.4266 25.7352 86.1414 25.8382C90.3613 26.0022 93.8217 24.9576 96.0395 20.4185C99.3169 13.7012 104.47 8.37044 111.222 4.84315C116.914 1.86862 122.906 1.03013 129.02 3.2786C131.712 4.26698 134.211 4.84784 136.977 3.73297C137.854 3.37697 138.914 3.47534 140.358 3.31139L140.349 3.29733Z" fill="#374B73"/>
<path d="M112.667 44.3518C116.085 48.2679 120.357 49.1767 124.651 50.0901C126.443 50.4742 128.238 50.9989 129.908 51.7296C132.941 53.0553 133.57 55.4771 132.44 58.5312C131.15 62.0257 130.269 65.6748 129.214 69.2583C129.157 69.4504 129.186 69.6705 129.134 69.8673C128.412 72.7903 121.552 76.9031 118.134 76.2567C124.061 71.8019 128.754 66.6913 130.334 59.2573C130.892 56.6247 130.353 55.093 127.854 54.2732C124.548 53.1911 121.201 52.2449 117.937 51.0551C115.124 50.0292 113.033 48.2258 112.662 44.3518H112.667Z" fill="#374B73"/>
<path d="M40.3936 58.7555C45.2466 55.1673 46.0343 50.394 45.0965 44.815C44.4026 40.6975 45.1106 36.7064 48.7022 32.9965C49.0773 34.0926 49.5837 34.8093 49.5134 35.4698C49.0679 39.6763 48.3318 43.8594 48.0083 48.0752C47.6144 53.1905 45.4435 56.9005 40.3936 58.7555Z" fill="#374B73"/>
</g>
<path d="M108.335 135.63C108.335 134.006 109.389 132.971 110.823 132.971C111.753 132.971 112.532 133.484 112.864 134.167V131.205H113.529V138.231H112.864V137.073C112.56 137.757 111.839 138.307 110.813 138.307C109.389 138.307 108.335 137.253 108.335 135.63ZM112.864 135.639C112.864 134.348 112 133.55 110.937 133.55C109.845 133.55 109.009 134.31 109.009 135.63C109.009 136.94 109.845 137.728 110.937 137.728C112 137.728 112.864 136.931 112.864 135.639Z" fill="#374B73"/>
<path d="M104.815 135.337V138.233H104.151V133.049H104.815V133.97C105.1 133.333 105.699 132.954 106.591 132.954V133.647H106.411C105.547 133.647 104.815 134.036 104.815 135.337Z" fill="#374B73"/>
<path d="M96.3929 135.628C96.3929 134.004 97.4469 132.969 98.8713 132.969C99.9158 132.969 100.628 133.529 100.922 134.184V133.045H101.587V138.229H100.922V137.08C100.618 137.745 99.8968 138.305 98.8618 138.305C97.4469 138.305 96.3929 137.251 96.3929 135.628ZM100.922 135.637C100.922 134.346 100.058 133.548 98.9947 133.548C97.9027 133.548 97.0671 134.308 97.0671 135.628C97.0671 136.938 97.9027 137.726 98.9947 137.726C100.058 137.726 100.922 136.928 100.922 135.637Z" fill="#374B73"/>
<path d="M92.3577 137.472L94.0669 133.047H94.7506L91.674 140.672H90.9809L91.9874 138.203L89.8604 133.047H90.5915L92.3577 137.472Z" fill="#374B73"/>
<path d="M83.0106 135.337V138.233H82.3459V133.049H83.0106V133.97C83.2954 133.333 83.8937 132.954 84.7862 132.954V133.647H84.6058C83.7417 133.647 83.0106 134.036 83.0106 135.337Z" fill="#374B73"/>
<path d="M79.7809 133.047V138.232H79.1162V137.32C78.8028 137.975 78.1192 138.317 77.35 138.317C76.1726 138.317 75.242 137.595 75.242 136.076V133.047H75.8972V136C75.8972 137.149 76.5239 137.738 77.4735 137.738C78.442 137.738 79.1162 137.13 79.1162 135.867V133.047H79.7809Z" fill="#374B73"/>
<path d="M73.0337 135.637C73.0337 137.28 71.8848 138.305 70.4225 138.305C68.9601 138.305 67.8492 137.28 67.8492 135.637C67.8492 133.985 68.9886 132.969 70.4414 132.969C71.9038 132.969 73.0337 133.985 73.0337 135.637ZM68.5233 135.637C68.5233 137.061 69.4349 137.726 70.4225 137.726C71.4005 137.726 72.3501 137.061 72.3501 135.637C72.3501 134.213 71.4195 133.548 70.4319 133.548C69.4444 133.548 68.5233 134.213 68.5233 135.637Z" fill="#374B73"/>
<path d="M63.8161 137.472L65.5253 133.047H66.209L63.1324 140.672H62.4393L63.4458 138.203L61.3188 133.047H62.0499L63.8161 137.472Z" fill="#374B73"/>
<path d="M55.1136 138.233V135.271C55.1136 134.122 54.4869 133.533 53.5374 133.533C52.5688 133.533 51.8946 134.141 51.8946 135.403V138.233H51.2299V133.049H51.8946V133.932C52.227 133.286 52.8917 132.954 53.6608 132.954C54.8383 132.954 55.7688 133.675 55.7688 135.195V138.233H55.1136Z" fill="#374B73"/>
<path d="M48.6693 133.047V138.232H48.0046V137.32C47.6912 137.975 47.0076 138.317 46.2384 138.317C45.061 138.317 44.1304 137.595 44.1304 136.076V133.047H44.7856V136C44.7856 137.149 45.4123 137.738 46.3619 137.738C47.3304 137.738 48.0046 137.13 48.0046 135.867V133.047H48.6693Z" fill="#374B73"/>
<path d="M41.1312 133.521C41.1312 132.686 40.6755 132.154 39.555 132.154H38.2256V134.917H39.5645C40.647 134.917 41.1312 134.328 41.1312 133.521ZM37.5609 131.594H39.555C41.0933 131.594 41.8149 132.429 41.8149 133.521C41.8149 134.433 41.3022 135.202 40.1817 135.411L41.8909 138.231H41.0933L39.4505 135.458H38.2256V138.231H37.5609V131.594Z" fill="#374B73"/>
<path d="M136.875 99.346H142.921V100.854H138.812V109.799H142.674V111.372H138.812V120.695H142.882V122.229H136.875V99.346Z" fill="#374B73"/>
<path d="M124.87 99.346H131.332V100.854H129.187V122.229H127.262V100.854H124.87V99.346Z" fill="#374B73"/>
<path d="M115.063 99.346H117.039L121.109 122.229H119.237L118.483 117.587H113.906L113.217 122.229H111.384L115.063 99.346ZM118.222 115.988L116.116 103.038H116.09L114.153 115.988H118.222Z" fill="#374B73"/>
<path d="M103.476 99.346H105.648V122.229H103.892V112.426L104.191 103.207L100.928 121.735H99.0818L95.7014 103.207L96.0004 112.426V122.229H94.2322V99.346H96.4035L100.005 118.562L103.476 99.346Z" fill="#374B73"/>
<path d="M80.3307 122.229V99.346H88.0016V102.349H83.8151V109.006H87.7936V111.945H83.8151V119.225H88.1576V122.229H80.3307Z" fill="#374B73"/>
<path d="M67.4916 122.229V99.346H70.976V119.264H75.3835V122.229H67.4916Z" fill="#374B73"/>
<path d="M61.4036 105.223C61.4036 107.684 60.7362 109.197 59.4014 109.76C61.0309 110.306 61.8457 112.105 61.8457 115.156V115.741C61.8284 118.038 61.4253 119.693 60.6365 120.708C59.8565 121.722 58.578 122.229 56.8011 122.229H51.7435V99.346H56.6971C58.4046 99.346 59.6138 99.7448 60.3245 100.542C61.0353 101.331 61.395 102.657 61.4036 104.521V105.223ZM55.2279 119.524H56.4631C57.1565 119.524 57.6419 119.286 57.9192 118.809C58.1966 118.333 58.3353 117.479 58.3353 116.248V114.402C58.3353 113.24 58.2226 112.421 57.9972 111.945C57.7719 111.459 57.3385 111.216 56.6971 111.216H55.2279V119.524ZM55.2279 108.603H56.5151C57.1131 108.603 57.5032 108.412 57.6852 108.031C57.8759 107.65 57.9712 106.865 57.9712 105.678V104.3C57.9626 103.416 57.8412 102.826 57.6072 102.531C57.3732 102.228 56.9701 102.076 56.398 102.076H55.2279V108.603Z" fill="#374B73"/>
<path d="M42.1295 115.351L40.5953 103.858H40.5433L39.1392 115.351H42.1295ZM34.9527 122.229L38.2161 99.346H42.8186L46.29 122.229H43.0396L42.4936 118.146H38.8011L38.3071 122.229H34.9527Z" fill="#374B73"/>
<path d="M25.0829 122.229V102.362H22.4046V99.346H31.1286V102.362H28.5543V122.229H25.0829Z" fill="#374B73"/>
<path d="M8.75073 115.792V113.751H12.0531V116.052C12.0531 117.326 12.1615 118.224 12.3782 118.744C12.5949 119.255 13.0022 119.511 13.6003 119.511C14.1984 119.511 14.5928 119.298 14.7835 118.874C14.9828 118.449 15.0825 117.756 15.0825 116.793C15.0825 115.831 14.9091 114.995 14.5624 114.284C14.2157 113.565 13.6653 112.815 12.9112 112.035L11.221 110.293C10.4323 109.469 9.81686 108.615 9.37481 107.731C8.94142 106.847 8.72473 105.824 8.72473 104.663C8.72473 102.773 9.08877 101.369 9.81686 100.45C10.5449 99.5317 11.7974 99.0723 13.5743 99.0723C15.3512 99.0723 16.5517 99.6097 17.1757 100.684C17.8085 101.751 18.1248 103.311 18.1248 105.365V106.782H14.9135V105.144C14.9135 104.035 14.8181 103.241 14.6274 102.765C14.4367 102.279 14.0684 102.037 13.5223 102.037C12.9849 102.037 12.5949 102.219 12.3522 102.583C12.1181 102.947 12.0011 103.493 12.0011 104.221C12.0011 104.949 12.1225 105.53 12.3652 105.963C12.6079 106.396 13.0456 106.951 13.6783 107.627L15.5635 109.669C16.5083 110.691 17.2191 111.727 17.6958 112.776C18.1812 113.825 18.4239 114.969 18.4239 116.208C18.4239 118.349 18.0642 119.931 17.3448 120.954C16.6253 121.977 15.3642 122.488 13.5613 122.488C11.7671 122.488 10.5146 121.92 9.80386 120.785C9.10178 119.641 8.75073 117.977 8.75073 115.792Z" fill="#374B73"/>
<path d="M33.6908 134.954C31.7506 134.891 25.9505 134.721 19.097 134.721C12.2436 134.721 6.44347 134.891 4.5033 134.954V135.001C6.44347 135.064 12.2436 135.233 19.097 135.233C25.9505 135.233 31.7506 135.065 33.6908 135.001V134.954Z" fill="#374B73"/>
<path d="M146.853 134.954C144.913 134.891 139.113 134.721 132.26 134.721C125.406 134.721 119.606 134.891 117.666 134.954V135.001C119.606 135.064 125.406 135.233 132.26 135.233C139.113 135.233 144.913 135.065 146.853 135.001V134.954Z" fill="#374B73"/>
<defs>
<filter id="filter0_d_2406_1013" x="0" y="0" width="155.435" height="100.052" filterUnits="userSpaceOnUse" color-interpolation-filters="sRGB">
<feFlood flood-opacity="0" result="BackgroundImageFix"/>
<feColorMatrix in="SourceAlpha" type="matrix" values="0 0 0 0 0 0 0 0 0 0 0 0 0 0 0 0 0 0 127 0" result="hardAlpha"/>
<feOffset dx="2" dy="2"/>
<feGaussianBlur stdDeviation="2"/>
<feComposite in2="hardAlpha" operator="out"/>
<feColorMatrix type="matrix" values="0 0 0 0 0 0 0 0 0 0 0 0 0 0 0 0 0 0 0.16 0"/>
<feBlend mode="normal" in2="BackgroundImageFix" result="effect1_dropShadow_2406_1013"/>
<feBlend mode="normal" in="SourceGraphic" in2="effect1_dropShadow_2406_1013" result="shape"/>
</filter>
</defs>
</svg>
